<svg preserveAspectRatio="xMidYMid meet" data-bbox="0 -0.01 59.87 55.704" viewBox="0 -0.01 59.87 55.704" xmlns="http://www.w3.org/2000/svg" data-type="color" role="img" aria-label="Rural Family Hope">
    <g>
        <path fill="#00a651" d="M36.34 15.58a4.73 4.73 0 1 1-9.46 0 4.73 4.73 0 0 1 9.46 0" data-color="1"></path>
        <path d="M10.22 17.33s2.69-1.51 14.35 3.1c11.66 4.62 13.02-3.08 13.02-3.08s2.46-4.83-.75-17.36c0 0 8.27 13.08 3.29 27.61 0 0-7.87 4.82-9.87 12.44 0 0-1.83-4.9-4.28-7.87 0 0 .34-8.45-15.75-14.86Z" fill="#00a651" data-color="1"></path>
        <path d="M12.68 24.56S35.56 31.7 29.3 53.94c0 0-11.37-.69-15.97-12.52-4.09-10.52-.64-16.86-.64-16.86Z" fill="#fdb52a" data-color="2"></path>
        <path d="M30.52 53.94s1.83-5.78 0-12.66c0 0 1.96-10.83 17.32-16.26 0 0 3.29 5.83-.59 15.63-3.88 9.79-11.73 13-16.73 13.3Z" fill="#fdb52a" data-color="2"></path>
        <path d="M0 37.03s.43 6.56 6.32 11.98 11.54 8.25 21.21 5.66c0 0-13.27-2.33-16.45-17.64 0 0-4.57-1.19-11.08 0" fill="#00aeef" data-color="3"></path>
        <path d="M32.53 54.63s9.65 4.07 18.97-3.71c8.37-6.99 8.37-14.03 8.37-14.03s-6.05-.86-10.73 0c0 0-1.54 13.93-16.62 17.74Z" fill="#00aeef" data-color="3"></path>
    </g>
</svg>