<?xml version="1.0" encoding="UTF-8"?>
<svg id="Layer_2" data-name="Layer 2" xmlns="http://www.w3.org/2000/svg" viewBox="0 0 181.79 55.92">
  <defs>
    <style>
      .cls-1 {
        fill: #fdb52a;
      }

      .cls-2 {
        fill: #fff;
      }

      .cls-3 {
        fill: #00aeef;
      }

      .cls-4 {
        fill: #00a651;
      }
    </style>
  </defs>
  <g id="Layer_1-2" data-name="Layer 1">
    <g>
      <g>
        <path class="cls-4" d="m34.5,14.8c0,2.48-2.01,4.49-4.49,4.49-2.48,0-4.49-2.01-4.49-4.49h0c0-2.48,2.01-4.49,4.49-4.49,2.48,0,4.49,2.01,4.49,4.49"/>
        <path class="cls-4" d="m9.7,16.46s2.55-1.43,13.62,2.94c11.07,4.39,12.36-2.92,12.36-2.92,0,0,2.34-4.59-.71-16.48,0,0,7.85,12.42,3.12,26.21,0,0-7.47,4.58-9.37,11.81,0,0-1.74-4.65-4.06-7.47,0,0,.32-8.02-14.95-14.11v.02Z"/>
        <path class="cls-1" d="m12.04,23.33s21.72,6.78,15.78,27.89c0,0-10.79-.66-15.16-11.89-3.88-9.99-.61-16.01-.61-16.01h0Z"/>
        <path class="cls-1" d="m28.97,51.22s1.74-5.49,0-12.02c0,0,1.86-10.28,16.44-15.44,0,0,3.12,5.53-.56,14.84-3.68,9.29-11.14,12.34-15.88,12.63h0Z"/>
        <path class="cls-3" d="m0,35.16s.41,6.23,6,11.37c5.59,5.15,10.96,7.83,20.14,5.37,0,0-12.6-2.21-15.62-16.75,0,0-4.34-1.13-10.52,0"/>
        <path class="cls-3" d="m30.88,51.87s9.16,3.86,18.01-3.52c7.95-6.64,7.95-13.32,7.95-13.32,0,0-5.74-.82-10.19,0,0,0-1.46,13.22-15.78,16.84h0Z"/>
      </g>
      <g>
        <path class="cls-2" d="m67.65,27.28h-4.45c.06-.67.11-2.43.11-3.91v-7.08c0-1.48-.04-3.24-.11-3.89h5.52c3.8,0,5.86,2.06,5.86,4.89,0,2.37-1.3,3.54-2.93,4.08,1.78,1.87,3.24,4.1,5.23,5.91h-5.49c-.72-.85-2.72-3.67-3.3-5.28-.09.02-.15.02-.2.02h-.35v1.35c0,1.47.04,3.24.11,3.91Zm-.11-8.27h1.04c1.06,0,1.76-.69,1.76-1.59s-.63-1.67-1.82-1.67h-.98v3.26Z"/>
        <path class="cls-2" d="m87.15,24.94c0,1.27-1.02,2.31-2.29,2.31h-1.29s0-.72,0-1.2c-.85,1.13-2.05,1.39-3.29,1.39-2.19,0-3.67-1.52-3.67-4.41v-3.87h-1.13c.26-.56.61-1.61.78-2.28h4.5c-.06.63-.11,1.59-.11,2.17v3.45c0,1.48.83,1.74,1.26,1.74.37,0,1.19-.17,1.19-1.74v-3.46c0-.59-.02-1.54-.09-2.17h4.21c-.07.63-.09,1.59-.09,2.17v5.88Z"/>
        <path class="cls-2" d="m96.3,16.76v4.21c-.35-.24-.87-.5-1.5-.5-1.26,0-1.69,1.43-1.69,2.32v2.3c0,1.19-.95,2.15-2.13,2.15h-1.99c.04-.72.07-1.46.07-2.17v-5.93h-1.13c.28-.63.65-1.61.8-2.26h3.95v2.24c.39-1.43,1.43-2.45,2.84-2.45.59,0,.54.09.78.09Z"/>
        <path class="cls-2" d="m106.85,24.36v.64c0,1.37-1.12,2.5-2.5,2.51-1.17,0-1.76-.43-2.19-1.06-.63.7-1.41,1.07-2.48,1.07-1.98,0-3.3-1.28-3.3-3.21s1.28-3.35,3.45-3.35c.85,0,1.63.22,1.93.41v-.41c0-.91-.7-1.39-1.85-1.39s-2.04.43-2.65,1.02v-3.15c.91-.46,1.67-.76,3.82-.76,3.19,0,4.6,1.89,4.6,4.73v2.26c0,.61.26.8.56.8.19,0,.43-.02.59-.11Zm-5.82-.95c-.46,0-.83.35-.83.76,0,.47.39.82.86.8.28-.01.53-.18.67-.41.33-.56-.12-1.15-.71-1.15Z"/>
        <path class="cls-2" d="m111.72,11.34c-.06.49-.08,1.46-.08,2.12v11.62c0,1.2-.97,2.17-2.17,2.17h-1.92s-.03-.01-.03-.03c.06-.49.08-1.44.08-2.14v-11.48s-.01-.03-.03-.03h-1.05s-.04-.02-.03-.04c.26-.57.63-1.62.76-2.2,0-.01.01-.02.03-.02h4.42s.03.01.03.03Z"/>
        <path class="cls-2" d="m120.22,23.39v-7.1c0-1.5-.04-3.24-.09-3.89h5.49c1.48,0,3.11-.04,3.78-.09v3.67c-.67-.06-2.3-.09-3.78-.09h-1.15v2.67h.76c1.5,0,2.89-.04,3.54-.09v3.58h-4.3v1.32c0,1.48.04,3.21.09,3.89h-4.43c.04-.67.09-2.41.09-3.88Z"/>
        <path class="cls-2" d="m139.71,24.36v.64c0,1.37-1.12,2.5-2.5,2.51-1.17,0-1.76-.43-2.19-1.06-.63.7-1.41,1.07-2.48,1.07-1.98,0-3.3-1.28-3.3-3.21s1.28-3.35,3.45-3.35c.85,0,1.63.22,1.93.41v-.41c0-.91-.7-1.39-1.85-1.39s-2.04.43-2.65,1.02v-3.15c.91-.46,1.67-.76,3.82-.76,3.19,0,4.6,1.89,4.6,4.73v2.26c0,.61.26.8.56.8.19,0,.43-.02.59-.11Zm-5.82-.95c-.46,0-.83.35-.83.76,0,.47.39.82.86.8.28-.01.53-.18.67-.41.33-.56-.12-1.15-.71-1.15Z"/>
        <path class="cls-2" d="m157.29,25.29c0,1.08-.87,1.96-1.96,1.96h-2.17c.04-.74.09-1.74.09-2.17v-3.39c0-1.24-.39-1.8-1.11-1.8s-1.19.52-1.19,1.69v3.53c0,1.18-.96,2.14-2.14,2.14h-1.99c.07-.82.09-1.37.09-2.17v-3.58c0-1.04-.43-1.61-1.11-1.61-.8,0-1.19.63-1.19,1.63v3.56c0,.12,0,.24,0,.37,0,.99-.79,1.8-1.79,1.8h-2.3c.02-.5.04-1.48.04-2.17v-5.91h-1.13c.26-.58.63-1.63.78-2.28h4.41v1.24c.61-.8,1.52-1.43,3.02-1.43,1.39,0,2.24.56,2.69,1.46.5-.65,1.41-1.46,3.11-1.46,2.17,0,3.84,1.5,3.84,4.41v4.18Z"/>
        <path class="cls-2" d="m162.92,25.08v.03c0,1.18-.95,2.15-2.13,2.15h-1.99c.04-.46.09-1.43.09-2.17v-5.91h-1.13c.28-.52.65-1.58.8-2.28h4.45c.02.74-.09,8.18-.09,8.18Zm-4.17-11.36c0-1.22.95-2.2,2.15-2.2s2.13.98,2.13,2.2-.93,2.17-2.13,2.17-2.15-.98-2.15-2.17Z"/>
        <path class="cls-2" d="m168.88,11.34c-.06.49-.08,1.46-.08,2.12v11.62c0,1.2-.97,2.17-2.17,2.17h-1.92s-.03-.01-.03-.03c.06-.49.08-1.44.08-2.14v-11.48s-.01-.03-.03-.03h-1.05s-.04-.02-.03-.04c.26-.57.63-1.62.76-2.2,0-.01.01-.02.03-.02h4.42s.03.01.03.03Z"/>
        <path class="cls-2" d="m181.79,16.89c-.35.61-.91,1.89-1.07,2.28-.74,1.78-2.19,5.28-3.13,7.1-.76,1.5-1.43,2.63-2.19,3.82-1.15,1.89-2.52,2.52-4.56,2.52-.41,0-.87-.09-1.22-.2.48-.52,1.02-1.13,1.54-1.89.93-1.32,1.8-2.6,2.56-4.08l-3.54-7.41c-.28-.56-.72-1.39-1.13-2.15h4.69c.11.52.22.85.45,1.41l1.59,3.67c.39-1.02.65-1.78,1.19-3.58.2-.52.26-1.02.35-1.5h4.45Z"/>
        <path class="cls-2" d="m67.52,41.18h4.89v-1.45c0-1.24-.04-2.98-.11-3.89h4.45c-.04.96-.11,2.69-.11,3.89v7.86c0,1.13.07,2.52.11,3.13h-4.45c.07-.61.11-2,.11-3.15v-2.87h-4.89v2.89c0,1.13.04,2.52.09,3.13h-4.41c.04-.61.09-2,.09-3.15v-7.84c0-1.54-.04-3.3-.09-3.89h4.41c-.04.58-.09,2.35-.09,3.89v1.45Z"/>
        <path class="cls-2" d="m88.82,45.49c0,2.95-2.52,5.34-5.6,5.34s-5.58-2.39-5.58-5.34,2.5-5.38,5.58-5.38,5.6,2.41,5.6,5.38Zm-3.99-.46c-.34-1.23-1.33-2.04-2.21-1.79-.89.24-1.33,1.44-.99,2.67.34,1.23,1.33,2.04,2.21,1.79.88-.24,1.33-1.44.99-2.67Z"/>
        <path class="cls-2" d="m101.72,45.32c0,3.08-2.15,5.54-5.06,5.54-.96,0-1.94-.08-2.65-.6-.02-.01-.04,0-.04.02v3.47c0,1.2-.97,2.17-2.17,2.17h-1.91s-.03-.01-.02-.02c.04-.61.06-1.59.06-2.15v-11.16s0-.03-.02-.03h-1.06s-.03-.02-.02-.04c.26-.58.61-1.54.78-2.18,0-.01.01-.02.02-.02h4.32s.02.01.02.02v.92s.03.03.04.02c.83-.76,1.67-1.18,2.91-1.18,2.8,0,4.8,2.39,4.8,5.21Zm-4.13.17c0-1.11-.8-2.02-1.78-2.02-1.04,0-1.93.91-1.93,2.02s.87,2.02,1.91,2.02c.98,0,1.8-.89,1.8-2.02Z"/>
        <path class="cls-2" d="m112.65,46.34h-6.36c.21,1.15,1.47,1.47,2.65,1.46,1.81-.02,3.19-.78,3.19-.78.57,2.22-1.4,3.84-3.91,3.84-3.26,0-5.73-2.32-5.73-5.32s2.21-5.41,5.12-5.41,5.08,2.41,5.08,5.41c0,.26-.02.63-.04.8Zm-3.93-2.04c-.07-.54-.43-1.3-1.24-1.3-.63,0-1.15.56-1.32,1.3h2.56Z"/>
      </g>
    </g>
  </g>
</svg>