<?xml version="1.0" encoding="UTF-8"?>
<svg id="Layer_2" data-name="Layer 2" xmlns="http://www.w3.org/2000/svg" viewBox="0 0 56.84 52.88">
  <defs>
    <style>
      .cls-1 {
        fill: #fdb52a;
      }

      .cls-2 {
        fill: #2aace2;
      }

      .cls-3 {
        fill: #00aeef;
      }

      .cls-4 {
        fill: #00a651;
      }
    </style>
  </defs>
  <g id="Layer_1-2" data-name="Layer 1">
    <g>
      <path class="cls-4" d="m34.5,14.8c0,2.48-2.01,4.49-4.49,4.49-2.48,0-4.49-2.01-4.49-4.49h0c0-2.48,2.01-4.49,4.49-4.49,2.48,0,4.49,2.01,4.49,4.49"/>
      <path class="cls-4" d="m9.7,16.46s2.55-1.43,13.62,2.94c11.07,4.39,12.36-2.92,12.36-2.92,0,0,2.34-4.59-.71-16.48,0,0,7.85,12.42,3.12,26.21,0,0-7.47,4.58-9.37,11.81,0,0-1.74-4.65-4.06-7.47,0,0,.32-8.02-14.95-14.11v.02Z"/>
      <path class="cls-1" d="m12.04,23.33s21.72,6.78,15.78,27.89c0,0-10.79-.66-15.16-11.89-3.88-9.99-.61-16.01-.61-16.01h0Z"/>
      <path class="cls-1" d="m28.97,51.22s1.74-5.49,0-12.02c0,0,1.86-10.28,16.44-15.44,0,0,3.12,5.53-.56,14.84-3.68,9.29-11.14,12.34-15.88,12.63h0Z"/>
      <path class="cls-3" d="m0,35.16s.41,6.23,6,11.37c5.59,5.15,10.96,7.83,20.14,5.37,0,0-12.6-2.21-15.62-16.75,0,0-4.34-1.13-10.52,0"/>
      <path class="cls-2" d="m30.88,51.87s9.16,3.86,18.01-3.52c7.95-6.64,7.95-13.32,7.95-13.32,0,0-5.74-.82-10.19,0,0,0-1.46,13.22-15.78,16.84h0Z"/>
    </g>
  </g>
</svg>